<svg width="24" height="24" viewBox="0 0 24 24" fill="none" xmlns="http://www.w3.org/2000/svg">
<path fill-rule="evenodd" clip-rule="evenodd" d="M14.2253 7.62707C12.7463 7.4631 11.2538 7.4631 9.77484 7.62707C8.66961 7.75015 7.77361 8.62153 7.64314 9.7403C7.46758 11.2416 7.46758 12.7583 7.64314 14.2597C7.77361 15.3797 8.66961 16.2486 9.77484 16.3729C11.2419 16.5366 12.7582 16.5366 14.2253 16.3729C14.7669 16.3127 15.2722 16.0711 15.6591 15.6875C16.0461 15.3039 16.292 14.8007 16.357 14.2597C16.533 12.7581 16.533 11.2418 16.357 9.7403C16.292 9.19928 16.0461 8.6961 15.6591 8.31248C15.2722 7.92885 14.7669 7.68731 14.2253 7.62707ZM9.97914 9.46215C11.3108 9.31446 12.6893 9.31446 14.021 9.46215C14.1478 9.47616 14.2663 9.53226 14.3576 9.62149C14.4488 9.71073 14.5075 9.82795 14.5244 9.95446C14.6831 11.3132 14.6831 12.6868 14.5244 14.0455C14.5075 14.1722 14.4486 14.2896 14.3571 14.3788C14.2656 14.4681 14.1468 14.5241 14.0198 14.5378C12.677 14.6865 11.3219 14.6865 9.97914 14.5378C9.85229 14.5238 9.73379 14.4677 9.64255 14.3785C9.55131 14.2893 9.49259 14.172 9.47576 14.0455C9.317 12.6865 9.317 11.3135 9.47576 9.95446C9.49265 9.82776 9.55155 9.7104 9.64303 9.62114C9.73452 9.53189 9.8533 9.4759 9.98038 9.46215H9.97914Z" fill="#00FF42"/>
<path fill-rule="evenodd" clip-rule="evenodd" d="M16.6154 0.923077C16.6154 0.678262 16.5181 0.443473 16.345 0.270363C16.1719 0.0972524 15.9371 0 15.6923 0C15.4475 0 15.2127 0.0972524 15.0396 0.270363C14.8665 0.443473 14.7692 0.678262 14.7692 0.923077V4.02954C14.1546 3.9864 13.5391 3.95767 12.9231 3.94338V2.15385C12.9231 1.90903 12.8258 1.67424 12.6527 1.50113C12.4796 1.32802 12.2448 1.23077 12 1.23077C11.7552 1.23077 11.5204 1.32802 11.3473 1.50113C11.1742 1.67424 11.0769 1.90903 11.0769 2.15385V3.94338C10.461 3.95767 9.8454 3.9864 9.23077 4.02954V0.923077C9.23077 0.678262 9.13352 0.443473 8.96041 0.270363C8.7873 0.0972524 8.55251 0 8.30769 0C8.06288 0 7.82809 0.0972524 7.65498 0.270363C7.48187 0.443473 7.38462 0.678262 7.38462 0.923077V4.21169C6.59766 4.35471 5.87346 4.73556 5.30965 5.3029C4.74583 5.87023 4.3695 6.59678 4.23139 7.38462H0.923077C0.678262 7.38462 0.443473 7.48187 0.270363 7.65498C0.0972524 7.82809 0 8.06288 0 8.30769C0 8.55251 0.0972524 8.7873 0.270363 8.96041C0.443473 9.13352 0.678262 9.23077 0.923077 9.23077H4.04554C4.00123 9.84615 3.97169 10.4615 3.95569 11.0769H2.15385C1.90903 11.0769 1.67424 11.1742 1.50113 11.3473C1.32802 11.5204 1.23077 11.7552 1.23077 12C1.23077 12.2448 1.32802 12.4796 1.50113 12.6527C1.67424 12.8258 1.90903 12.9231 2.15385 12.9231H3.95569C3.97169 13.5385 4.00123 14.1538 4.04554 14.7692H0.923077C0.678262 14.7692 0.443473 14.8665 0.270363 15.0396C0.0972524 15.2127 0 15.4475 0 15.6923C0 15.9371 0.0972524 16.1719 0.270363 16.345C0.443473 16.5181 0.678262 16.6154 0.923077 16.6154H4.23139C4.3695 17.4032 4.74583 18.1298 5.30965 18.6971C5.87346 19.2644 6.59766 19.6453 7.38462 19.7883V23.0769C7.38462 23.3217 7.48187 23.5565 7.65498 23.7296C7.82809 23.9027 8.06288 24 8.30769 24C8.55251 24 8.7873 23.9027 8.96041 23.7296C9.13352 23.5565 9.23077 23.3217 9.23077 23.0769V19.9705C9.84369 20.0135 10.4603 20.0431 11.0769 20.0566V21.8462C11.0769 22.091 11.1742 22.3258 11.3473 22.4989C11.5204 22.672 11.7552 22.7692 12 22.7692C12.2448 22.7692 12.4796 22.672 12.6527 22.4989C12.8258 22.3258 12.9231 22.091 12.9231 21.8462V20.0566C13.5391 20.0424 14.1546 20.0136 14.7692 19.9705V23.0769C14.7692 23.3217 14.8665 23.5565 15.0396 23.7296C15.2127 23.9027 15.4475 24 15.6923 24C15.9371 24 16.1719 23.9027 16.345 23.7296C16.5181 23.5565 16.6154 23.3217 16.6154 23.0769V19.7883C17.4023 19.6453 18.1265 19.2644 18.6904 18.6971C19.2542 18.1298 19.6305 17.4032 19.7686 16.6154H23.0769C23.3217 16.6154 23.5565 16.5181 23.7296 16.345C23.9027 16.1719 24 15.9371 24 15.6923C24 15.4475 23.9027 15.2127 23.7296 15.0396C23.5565 14.8665 23.3217 14.7692 23.0769 14.7692H19.9545C19.9988 14.1538 20.0283 13.5385 20.0443 12.9231H21.8462C22.091 12.9231 22.3258 12.8258 22.4989 12.6527C22.672 12.4796 22.7692 12.2448 22.7692 12C22.7692 11.7552 22.672 11.5204 22.4989 11.3473C22.3258 11.1742 22.091 11.0769 21.8462 11.0769H20.0443C20.0283 10.4615 19.9988 9.84615 19.9545 9.23077H23.0769C23.3217 9.23077 23.5565 9.13352 23.7296 8.96041C23.9027 8.7873 24 8.55251 24 8.30769C24 8.06288 23.9027 7.82809 23.7296 7.65498C23.5565 7.48187 23.3217 7.38462 23.0769 7.38462H19.7686C19.6305 6.59678 19.2542 5.87023 18.6904 5.3029C18.1265 4.73556 17.4023 4.35471 16.6154 4.21169V0.923077ZM7.856 6.00615C10.6102 5.70089 13.3898 5.70089 16.144 6.00615C17.0954 6.11323 17.8548 6.86523 17.9643 7.80185C18.2905 10.5911 18.2905 13.4089 17.9643 16.1982C17.9065 16.6585 17.6954 17.0859 17.3649 17.4114C17.0344 17.737 16.6039 17.9417 16.1428 17.9926C13.3889 18.2977 10.6098 18.2977 7.856 17.9926C7.39511 17.9415 6.96487 17.7366 6.63464 17.4111C6.30441 17.0855 6.09342 16.6583 6.03569 16.1982C5.70949 13.4089 5.70949 10.5911 6.03569 7.80185C6.09348 7.34155 6.30464 6.91414 6.63512 6.58858C6.9656 6.26301 7.39612 6.05827 7.85723 6.00738L7.856 6.00615Z" fill="#00FF42"/>
</svg>
