<svg width="25" height="24" viewBox="0 0 25 24" fill="none" xmlns="http://www.w3.org/2000/svg">
<path d="M24 11.999V11.993C24 8.44202 22.454 5.25302 19.999 3.06002L19.987 3.05002C19.9567 3.01734 19.9228 2.98815 19.886 2.96302L19.884 2.96202C17.7036 1.04755 14.8996 -0.0056317 11.998 2.265e-05C8.966 2.265e-05 6.198 1.12602 4.088 2.98402L4.101 2.97302C4.07557 2.99231 4.05212 3.01409 4.031 3.03802C2.76253 4.16121 1.7472 5.54211 1.05226 7.08732C0.357326 8.63252 -0.00134689 10.3077 3.80066e-06 12.002C3.80066e-06 15.552 1.544 18.741 3.997 20.935L4.009 20.945C4.04077 20.9811 4.07631 21.0136 4.115 21.042L4.117 21.043C6.29684 22.9547 9.09869 24.0063 11.998 24.001C14.9109 24.0055 17.7247 22.9441 19.909 21.017L19.896 21.028C21.1865 19.9061 22.2209 18.52 22.9293 16.9637C23.6377 15.4074 24.0035 13.717 24.002 12.007V12L24 11.999ZM19.538 19.804C18.9436 19.3232 18.3043 18.9006 17.629 18.542L17.564 18.51C18.177 16.743 18.546 14.706 18.581 12.587V12.571H22.842C22.6983 15.3124 21.5184 17.8968 19.541 19.801L19.538 19.804ZM12.572 18.299C13.855 18.368 15.054 18.65 16.16 19.109L16.088 19.083C15.202 21.103 13.955 22.491 12.572 22.796V18.299ZM12.572 17.155V12.571H17.44C17.4014 14.4693 17.0722 16.3504 16.464 18.149L16.503 18.018C15.2615 17.5077 13.941 17.2161 12.6 17.156L12.573 17.155H12.572ZM12.572 11.427V6.84302C13.9492 6.78017 15.305 6.47869 16.579 5.95202L16.5 5.98102C17.055 7.60002 17.396 9.46602 17.44 11.406V11.427H12.572ZM12.572 5.69902V1.20402C13.955 1.50902 15.202 2.89102 16.088 4.91702C15.054 5.34702 13.855 5.62802 12.601 5.69802L12.572 5.69902ZM15.426 1.69902C16.6044 2.09206 17.7064 2.68468 18.684 3.45102L18.661 3.43302C18.218 3.78102 17.721 4.10902 17.197 4.39402L17.141 4.42202C16.7176 3.42275 16.1354 2.49849 15.417 1.68502L15.426 1.69602V1.69902ZM11.426 1.20702V5.69902C10.1925 5.6361 8.97891 5.36213 7.838 4.88902L7.91 4.91502C8.8 2.89502 10.045 1.50802 11.428 1.20302L11.426 1.20702ZM6.858 4.41902C6.31593 4.12738 5.79943 3.79052 5.314 3.41202L5.338 3.43002C6.28714 2.68618 7.35472 2.10742 8.496 1.71802L8.572 1.69502C7.87242 2.48646 7.30238 3.38353 6.883 4.35302L6.858 4.41902ZM11.428 6.84202V11.426H6.56C6.604 9.46502 6.945 7.59902 7.539 5.84902L7.5 5.98002C8.74106 6.48949 10.0608 6.78077 11.401 6.84102L11.428 6.84202ZM11.428 12.57V17.154C10.0508 17.2169 8.69504 17.5184 7.421 18.045L7.5 18.016C6.945 16.398 6.604 14.531 6.56 12.591V12.57H11.428ZM11.428 18.298V22.793C10.045 22.488 8.798 21.106 7.912 19.08C8.946 18.65 10.145 18.37 11.399 18.3L11.428 18.298ZM8.578 22.298C7.39996 21.9061 6.29794 21.3149 5.32 20.55L5.344 20.568C5.787 20.22 6.284 19.892 6.808 19.607L6.864 19.579C7.28389 20.5787 7.86606 21.5021 8.587 22.312L8.578 22.302V22.298ZM17.142 19.578C17.722 19.893 18.219 20.22 18.686 20.585L18.662 20.567C17.7129 21.3109 16.6453 21.8896 15.504 22.279L15.428 22.302C16.1276 21.511 16.6976 20.6142 17.117 19.645L17.142 19.58V19.578ZM22.842 11.427H18.581C18.5503 9.35797 18.1933 7.30673 17.523 5.34902L17.564 5.48702C18.2704 5.11509 18.9392 4.67571 19.561 4.17502L19.537 4.19302C21.5103 6.09005 22.6906 8.66486 22.84 11.398L22.841 11.426L22.842 11.427ZM4.462 4.19402C5.038 4.66202 5.685 5.09102 6.371 5.45602L6.436 5.48802C5.823 7.25502 5.454 9.29202 5.419 11.411V11.427H1.157C1.3007 8.68562 2.48065 6.10123 4.458 4.19702L4.462 4.19402ZM1.158 12.571H5.419C5.44966 14.6401 5.80672 16.6913 6.477 18.649L6.436 18.511C5.685 18.91 5.039 19.339 4.439 19.823L4.463 19.805C2.48974 17.908 1.30937 15.3332 1.16 12.6L1.159 12.572L1.158 12.571Z" fill="black"/>
</svg>
