<?xml version="1.0" encoding="UTF-8" ?>
<svg version="1.1" width="48" height="48" xmlns="http://www.w3.org/2000/svg" shape-rendering="crispEdges">
<rect x="20" y="0" width="2" height="2" fill="#000000" />
<rect x="22" y="0" width="2" height="2" fill="#000000" />
<rect x="24" y="0" width="2" height="2" fill="#000000" />
<rect x="26" y="0" width="2" height="2" fill="#000000" />
<rect x="28" y="0" width="2" height="2" fill="#000000" />
<rect x="18" y="2" width="2" height="2" fill="#000000" />
<rect x="30" y="2" width="2" height="2" fill="#000000" />
<rect x="16" y="4" width="2" height="2" fill="#000000" />
<rect x="32" y="4" width="2" height="2" fill="#000000" />
<rect x="14" y="6" width="2" height="2" fill="#000000" />
<rect x="34" y="6" width="2" height="2" fill="#000000" />
<rect x="14" y="8" width="2" height="2" fill="#000000" />
<rect x="34" y="8" width="2" height="2" fill="#000000" />
<rect x="14" y="10" width="2" height="2" fill="#000000" />
<rect x="34" y="10" width="2" height="2" fill="#000000" />
<rect x="14" y="12" width="2" height="2" fill="#000000" />
<rect x="34" y="12" width="2" height="2" fill="#000000" />
<rect x="14" y="14" width="2" height="2" fill="#000000" />
<rect x="34" y="14" width="2" height="2" fill="#000000" />
<rect x="16" y="16" width="2" height="2" fill="#000000" />
<rect x="32" y="16" width="2" height="2" fill="#000000" />
<rect x="18" y="18" width="2" height="2" fill="#000000" />
<rect x="30" y="18" width="2" height="2" fill="#000000" />
<rect x="20" y="20" width="2" height="2" fill="#000000" />
<rect x="22" y="20" width="2" height="2" fill="#000000" />
<rect x="24" y="20" width="2" height="2" fill="#000000" />
<rect x="26" y="20" width="2" height="2" fill="#000000" />
<rect x="28" y="20" width="2" height="2" fill="#000000" />
<rect x="16" y="22" width="2" height="2" fill="#000000" />
<rect x="18" y="22" width="2" height="2" fill="#000000" />
<rect x="30" y="22" width="2" height="2" fill="#000000" />
<rect x="32" y="22" width="2" height="2" fill="#000000" />
<rect x="16" y="24" width="2" height="2" fill="#000000" />
<rect x="32" y="24" width="2" height="2" fill="#000000" />
<rect x="14" y="26" width="2" height="2" fill="#000000" />
<rect x="34" y="26" width="2" height="2" fill="#000000" />
<rect x="14" y="28" width="2" height="2" fill="#000000" />
<rect x="34" y="28" width="2" height="2" fill="#000000" />
<rect x="12" y="30" width="2" height="2" fill="#000000" />
<rect x="36" y="30" width="2" height="2" fill="#000000" />
<rect x="12" y="32" width="2" height="2" fill="#000000" />
<rect x="36" y="32" width="2" height="2" fill="#000000" />
<rect x="10" y="34" width="2" height="2" fill="#000000" />
<rect x="12" y="34" width="2" height="2" fill="#000000" />
<rect x="36" y="34" width="2" height="2" fill="#000000" />
<rect x="38" y="34" width="2" height="2" fill="#000000" />
<rect x="10" y="36" width="2" height="2" fill="#000000" />
<rect x="38" y="36" width="2" height="2" fill="#000000" />
<rect x="10" y="38" width="2" height="2" fill="#000000" />
<rect x="38" y="38" width="2" height="2" fill="#000000" />
<rect x="10" y="40" width="2" height="2" fill="#000000" />
<rect x="12" y="40" width="2" height="2" fill="#000000" />
<rect x="36" y="40" width="2" height="2" fill="#000000" />
<rect x="38" y="40" width="2" height="2" fill="#000000" />
<rect x="12" y="42" width="2" height="2" fill="#000000" />
<rect x="36" y="42" width="2" height="2" fill="#000000" />
<rect x="12" y="44" width="2" height="2" fill="#000000" />
<rect x="14" y="44" width="2" height="2" fill="#000000" />
<rect x="34" y="44" width="2" height="2" fill="#000000" />
<rect x="36" y="44" width="2" height="2" fill="#000000" />
<rect x="14" y="46" width="2" height="2" fill="#000000" />
<rect x="16" y="46" width="2" height="2" fill="#000000" />
<rect x="18" y="46" width="2" height="2" fill="#000000" />
<rect x="20" y="46" width="2" height="2" fill="#000000" />
<rect x="22" y="46" width="2" height="2" fill="#000000" />
<rect x="24" y="46" width="2" height="2" fill="#000000" />
<rect x="26" y="46" width="2" height="2" fill="#000000" />
<rect x="28" y="46" width="2" height="2" fill="#000000" />
<rect x="30" y="46" width="2" height="2" fill="#000000" />
<rect x="32" y="46" width="2" height="2" fill="#000000" />
<rect x="34" y="46" width="2" height="2" fill="#000000" />
</svg>